<?xml version="1.0" standalone="no"?>
<!DOCTYPE svg PUBLIC "-//W3C//DTD SVG 20010904//EN"
 "http://www.w3.org/TR/2001/REC-SVG-20010904/DTD/svg10.dtd">
<svg version="1.0" xmlns="http://www.w3.org/2000/svg"
 width="900.000000pt" height="900.000000pt" viewBox="0 0 900.000000 900.000000"
 preserveAspectRatio="xMidYMid meet">

<g transform="translate(0.000000,900.000000) scale(0.100000,-0.100000)"
fill="#000000" stroke="none">
<path d="M0 4500 l0 -4500 4500 0 4500 0 0 4500 0 4500 -4500 0 -4500 0 0
-4500z m7607 4177 c107 -22 225 -54 271 -75 20 -8 42 -17 49 -18 53 -10 285
-142 276 -157 -3 -6 -2 -7 4 -4 12 8 55 -21 48 -33 -3 -5 0 -12 6 -16 8 -4 9
-3 5 4 -13 22 9 12 44 -19 310 -270 475 -561 542 -959 19 -110 19 -5650 0
-5760 -53 -312 -172 -570 -367 -789 -101 -114 -258 -247 -278 -234 -5 3 -7 2
-4 -4 9 -15 -223 -147 -276 -157 -7 -1 -29 -10 -49 -18 -46 -21 -164 -53 -271
-75 -76 -16 -304 -17 -3012 -21 -2002 -2 -2974 0 -3070 7 -165 13 -314 45
-445 96 -110 43 -210 94 -210 107 0 5 -4 7 -10 3 -5 -3 -18 3 -30 15 -11 11
-20 17 -20 14 0 -11 -117 78 -196 148 -267 241 -422 531 -486 908 -19 110 -19
5650 0 5760 64 377 219 667 486 908 79 70 196 159 196 148 0 -3 9 3 20 14 12
12 25 18 30 15 6 -4 10 -2 10 3 0 13 100 64 210 107 117 46 282 84 409 94 53
5 1433 8 3066 7 2751 -2 2976 -3 3052 -19z"/>
<path d="M7780 5566 c-88 -24 -104 -37 -112 -86 -5 -25 -7 -90 -4 -145 2 -55
1 -106 -1 -112 -4 -9 -34 -13 -104 -13 -95 0 -100 -1 -129 -28 -30 -29 -49
-88 -50 -153 0 -55 29 -139 57 -165 24 -22 35 -24 124 -24 l98 0 3 -42 c2 -24
1 -122 -2 -218 l-5 -175 -107 -10 c-121 -12 -137 -21 -164 -91 -21 -54 -15
-184 10 -233 34 -66 46 -71 156 -71 80 0 101 -3 108 -16 5 -9 7 -63 4 -120 -4
-99 -2 -107 21 -143 14 -21 47 -52 73 -69 41 -28 56 -32 114 -32 80 0 122 23
157 85 l22 40 1 867 c0 521 -4 876 -9 891 -6 16 -29 34 -65 51 -61 29 -121 32
-196 12z"/>
<path d="M5068 5551 c-50 -16 -88 -45 -104 -80 -15 -32 -16 -107 -10 -911 6
-815 8 -877 25 -900 29 -41 81 -61 164 -62 83 -1 144 21 186 66 l23 24 5 869
c6 977 11 918 -68 970 -36 24 -54 28 -118 30 -42 1 -88 -2 -103 -6z"/>
<path d="M2713 5522 c-28 -10 -55 -21 -60 -25 -4 -5 -10 -77 -13 -160 l-5
-152 -99 -2 c-112 -1 -142 -15 -163 -74 -17 -49 -16 -148 3 -202 25 -75 49
-87 165 -87 l99 0 0 -214 0 -214 -107 -7 c-106 -8 -109 -8 -140 -42 -39 -41
-47 -80 -40 -184 5 -82 29 -139 67 -159 10 -6 64 -10 119 -10 l101 0 0 -120
c0 -141 8 -162 76 -215 44 -33 51 -35 122 -35 64 0 80 4 107 24 68 52 64 1 65
953 1 639 -1 867 -10 883 -30 56 -176 77 -287 42z"/>
<path d="M3654 5392 c-37 -39 -57 -82 -66 -142 -5 -36 16 -81 53 -114 l39 -36
250 0 c138 0 250 -1 250 -2 6 -42 11 -485 6 -511 -5 -29 -18 -46 -56 -75 -79
-61 -297 -212 -305 -212 -11 0 -157 -109 -172 -128 -7 -9 -13 -33 -13 -54 0
-47 32 -99 104 -174 60 -62 80 -66 155 -31 43 21 200 122 257 166 12 9 32 23
44 31 13 8 46 33 74 56 28 22 67 51 86 64 67 46 192 175 212 219 18 40 20 72
25 442 5 354 4 402 -10 432 -20 42 -74 96 -102 102 -11 3 -193 6 -405 8 l-385
2 -41 -43z"/>
<path d="M6430 5419 c-109 -19 -247 -76 -323 -133 -96 -72 -218 -215 -253
-296 -44 -99 -56 -134 -69 -203 -53 -265 32 -545 222 -730 188 -183 407 -259
659 -228 257 31 472 174 601 399 24 42 55 113 70 157 24 73 27 94 27 235 0
116 -4 171 -17 217 -39 141 -110 255 -233 376 -86 84 -187 142 -329 189 -70
23 -268 33 -355 17z m200 -449 c236 -45 367 -258 295 -480 -45 -136 -174 -234
-325 -247 -150 -13 -303 85 -364 232 -38 89 -30 207 19 305 45 89 160 174 260
191 59 10 58 10 115 -1z"/>
<path d="M1435 5390 c-135 -23 -241 -67 -340 -140 -113 -84 -208 -205 -260
-330 -15 -36 -34 -83 -43 -104 -13 -31 -17 -74 -17 -195 0 -155 0 -157 37
-260 46 -129 86 -196 167 -283 111 -119 233 -197 366 -234 81 -22 258 -29 350
-15 105 17 242 73 314 128 166 126 252 245 308 425 22 72 26 102 26 223 1 132
0 146 -31 241 -40 121 -84 197 -175 297 -96 107 -224 187 -363 228 -78 22
-259 33 -339 19z m289 -475 c79 -40 158 -127 182 -203 30 -90 25 -191 -13
-272 -38 -81 -87 -131 -167 -170 -258 -127 -560 89 -516 368 21 131 85 218
203 277 70 36 75 37 163 33 76 -3 100 -9 148 -33z"/>
</g>
</svg>
