<?xml version="1.0" standalone="no"?>
<!DOCTYPE svg PUBLIC "-//W3C//DTD SVG 20010904//EN"
 "http://www.w3.org/TR/2001/REC-SVG-20010904/DTD/svg10.dtd">
<svg version="1.0" xmlns="http://www.w3.org/2000/svg"
 width="900.000000pt" height="300.000000pt" viewBox="0 0 900.000000 300.000000"
 preserveAspectRatio="xMidYMid meet">

<g transform="translate(0.000000,300.000000) scale(0.100000,-0.100000)"
fill="#000000" stroke="none">
<path d="M0 1500 l0 -1500 4500 0 4500 0 0 1500 0 1500 -4500 0 -4500 0 0
-1500z m4736 1331 c185 -38 343 -103 495 -205 90 -59 218 -171 268 -235 l30
-38 -55 -84 c-163 -245 -238 -491 -237 -774 1 -285 73 -518 238 -761 l65 -96
-49 -56 c-278 -319 -729 -498 -1143 -453 -652 70 -1149 549 -1233 1188 -19
144 -19 219 0 352 45 310 175 572 389 786 273 272 622 411 1002 400 76 -2 172
-12 230 -24z m-2356 -5 c109 -25 201 -56 296 -101 146 -68 331 -196 317 -218
-3 -6 -1 -7 4 -4 13 8 36 -17 25 -28 -4 -5 -2 -5 5 -1 13 7 122 -100 123 -121
0 -6 6 -13 13 -16 8 -3 2 -17 -19 -43 -117 -148 -213 -377 -249 -593 -25 -149
-16 -387 19 -526 33 -130 77 -239 139 -345 27 -47 50 -91 50 -97 0 -7 2 -11 5
-8 3 2 17 -12 33 -32 33 -45 30 -52 -45 -133 -201 -217 -489 -369 -786 -416
-126 -20 -374 -15 -485 10 -174 39 -339 109 -485 207 -106 71 -293 246 -286
266 3 8 2 12 -3 8 -5 -3 -19 7 -30 22 -11 16 -24 33 -29 38 -26 34 -94 152
-126 219 -42 88 -86 225 -107 331 -21 107 -19 408 4 515 55 255 179 491 356
674 91 93 227 200 243 190 6 -4 8 -3 5 3 -6 9 79 65 96 63 4 0 15 6 23 15 9 8
20 13 25 10 5 -4 9 -2 9 3 0 25 252 101 415 126 64 9 381 -3 445 -18z m4745
-1 c112 -25 223 -64 325 -115 102 -52 240 -144 240 -161 0 -6 4 -8 8 -5 24 15
299 -302 288 -330 -3 -8 0 -13 6 -11 17 3 104 -175 142 -293 54 -165 70 -285
63 -469 -9 -226 -43 -364 -141 -561 -51 -102 -141 -240 -158 -240 -4 0 -8 -6
-8 -13 0 -19 -55 -69 -65 -60 -4 5 -5 3 -2 -3 9 -16 -61 -85 -168 -166 -73
-55 -100 -70 -110 -60 -5 4 -5 2 -1 -5 9 -16 -141 -89 -280 -136 -187 -65
-438 -85 -644 -52 -101 17 -303 79 -325 101 -7 7 -15 11 -18 8 -8 -8 -185 91
-207 116 -3 3 -23 17 -45 31 -63 41 -176 150 -168 163 3 6 2 8 -2 3 -9 -7 -65
40 -65 54 0 4 -14 23 -31 41 -99 108 -212 354 -256 561 -25 117 -25 419 0 537
27 126 103 334 119 324 4 -3 5 3 1 12 -5 13 -3 15 7 9 9 -6 11 -4 6 4 -9 14
40 99 116 203 62 85 266 281 285 274 8 -3 12 -2 9 3 -3 4 28 29 69 55 149 95
328 163 501 191 114 18 408 13 509 -10z"/>
<path d="M4766 2122 c-22 -2 -53 -12 -68 -23 l-28 -20 0 -598 c0 -688 -9 -631
99 -639 58 -4 104 10 128 40 14 17 25 1140 11 1179 -16 47 -63 67 -142 61z"/>
<path d="M3790 2009 c-12 -18 -25 -50 -27 -73 -4 -35 -1 -45 22 -69 l28 -27
167 0 168 0 4 -47 c3 -27 4 -112 4 -191 l-1 -144 -29 -21 c-16 -12 -95 -67
-175 -122 -79 -55 -149 -107 -154 -116 -16 -26 0 -65 51 -120 l49 -53 34 14
c78 33 311 202 405 295 74 74 73 68 74 397 l0 236 -33 36 -34 36 -265 0 -264
0 -24 -31z"/>
<path d="M2485 2108 c-16 -6 -33 -16 -37 -22 -4 -6 -8 -55 -8 -108 l0 -98 -68
0 c-40 0 -76 -5 -86 -13 -39 -29 -42 -156 -5 -196 16 -17 32 -21 89 -21 l70 0
0 -149 0 -149 -75 -7 c-79 -7 -101 -19 -111 -61 -10 -41 1 -140 19 -168 16
-24 23 -26 92 -26 l75 0 0 -86 0 -86 39 -39 c34 -35 44 -39 88 -39 28 0 58 7
71 16 50 35 50 30 51 630 1 309 -1 573 -4 587 -5 17 -18 29 -37 36 -39 14
-123 13 -163 -1z"/>
<path d="M1635 2020 c-189 -29 -339 -152 -412 -337 -23 -59 -27 -83 -27 -178
-1 -140 24 -219 99 -320 178 -239 518 -282 753 -95 155 124 224 332 177 538
-40 173 -194 330 -375 381 -52 14 -158 20 -215 11z m190 -311 c93 -49 139
-122 139 -218 0 -75 -22 -127 -75 -179 -36 -35 -123 -72 -169 -72 -55 0 -136
38 -179 85 -111 120 -78 304 68 380 62 32 159 34 216 4z"/>
<path d="M7286 2120 c-16 -5 -33 -15 -37 -22 -5 -7 -9 -57 -9 -110 l0 -98 -68
0 c-40 0 -76 -5 -86 -13 -37 -27 -42 -142 -8 -194 13 -20 23 -23 88 -23 l74 0
0 -150 0 -150 -47 -2 c-27 -1 -55 -2 -63 -4 -8 -1 -23 -2 -32 -3 -48 -3 -68
-165 -27 -222 19 -28 24 -29 95 -29 l74 0 0 -86 0 -86 39 -39 c35 -36 43 -39
93 -39 46 0 60 4 81 25 13 14 27 38 30 53 8 38 9 1126 1 1156 -4 16 -17 29
-36 35 -36 13 -121 13 -162 1z"/>
<path d="M6372 2014 c-167 -43 -296 -165 -354 -333 -18 -53 -23 -87 -22 -176
0 -98 3 -118 29 -180 49 -121 111 -196 217 -265 151 -99 380 -100 545 -3 108
63 204 194 238 323 18 68 13 225 -9 293 -21 65 -67 143 -113 192 -39 41 -116
105 -127 105 -3 0 -30 11 -61 25 -52 24 -180 47 -235 42 -14 -1 -62 -11 -108
-23z m242 -288 c91 -38 149 -125 150 -226 3 -214 -247 -326 -406 -182 -83 75
-106 187 -59 285 23 47 86 108 132 126 36 15 145 13 183 -3z"/>
</g>
</svg>
